# xmcd CD database file
#
# Track frame offsets:
#	150
#	22605
#	34927
#	53911
#
# Disc length: 1017 seconds
#
# Revision: 7
# Processed by: cddbd v1.5.2PL0 Copyright (c) Steve Scherf et al.
# Submitted via: CDex 1.70beta3
#
DISCID=2503f704
DTITLE=YUI - fight
DYEAR=2012
DGENRE=JPop
TTITLE0=fight
TTITLE1=If you
TTITLE2=Happy Birthday to you you ～YUI Acoustic Version～
TTITLE3=fight ～Instrumental～
EXTD=YEAR: 2012
EXTT0=
EXTT1=
EXTT2=
EXTT3=
PLAYORDER=
